<svg width="147" height="39" viewBox="0 0 147 39" fill="none" xmlns="http://www.w3.org/2000/svg">
<path d="M53.94 30.1142L48.33 13.7942H52.47L56.58 26.1842L55.14 26.1542L59.52 13.7942H63L67.35 26.1542L65.91 26.1842L70.02 13.7942H74.16L68.55 30.1142H65.04L60.6 17.1842H61.92L57.42 30.1142H53.94ZM82.2614 30.4742C80.5814 30.4742 79.1114 30.0942 77.8514 29.3342C76.5914 28.5742 75.6114 27.5442 74.9114 26.2442C74.2114 24.9442 73.8614 23.5042 73.8614 21.9242C73.8614 20.2842 74.2114 18.8342 74.9114 17.5742C75.6314 16.2942 76.6014 15.2842 77.8214 14.5442C79.0614 13.8042 80.4414 13.4342 81.9614 13.4342C83.2414 13.4342 84.3614 13.6442 85.3214 14.0642C86.3014 14.4842 87.1314 15.0642 87.8114 15.8042C88.4914 16.5442 89.0114 17.3942 89.3714 18.3542C89.7314 19.2942 89.9114 20.3142 89.9114 21.4142C89.9114 21.6942 89.8914 21.9842 89.8514 22.2842C89.8314 22.5842 89.7814 22.8442 89.7014 23.0642H77.1014V20.0642H87.4814L85.6214 21.4742C85.8014 20.5542 85.7514 19.7342 85.4714 19.0142C85.2114 18.2942 84.7714 17.7242 84.1514 17.3042C83.5514 16.8842 82.8214 16.6742 81.9614 16.6742C81.1414 16.6742 80.4114 16.8842 79.7714 17.3042C79.1314 17.7042 78.6414 18.3042 78.3014 19.1042C77.9814 19.8842 77.8614 20.8342 77.9414 21.9542C77.8614 22.9542 77.9914 23.8442 78.3314 24.6242C78.6914 25.3842 79.2114 25.9742 79.8914 26.3942C80.5914 26.8142 81.3914 27.0242 82.2914 27.0242C83.1914 27.0242 83.9514 26.8342 84.5714 26.4542C85.2114 26.0742 85.7114 25.5642 86.0714 24.9242L89.2514 26.4842C88.9314 27.2642 88.4314 27.9542 87.7514 28.5542C87.0714 29.1542 86.2614 29.6242 85.3214 29.9642C84.4014 30.3042 83.3814 30.4742 82.2614 30.4742ZM89.6276 30.1142L95.3276 21.9242L89.5976 13.7942H94.2176L98.6876 20.3942H96.6176L101.088 13.7942H105.678L99.9776 21.9242L105.648 30.1142H101.058L96.6476 23.5442H98.6576L94.2476 30.1142H89.6276ZM106.326 30.1142V13.7942H110.256V30.1142H106.326ZM106.326 11.9642V7.76423H110.256V11.9642H106.326ZM120.245 30.4742C118.625 30.4742 117.165 30.1042 115.865 29.3642C114.585 28.6042 113.575 27.5842 112.835 26.3042C112.095 25.0042 111.725 23.5442 111.725 21.9242C111.725 20.3042 112.095 18.8542 112.835 17.5742C113.575 16.2942 114.585 15.2842 115.865 14.5442C117.165 13.8042 118.625 13.4342 120.245 13.4342C121.405 13.4342 122.485 13.6442 123.485 14.0642C124.485 14.4642 125.345 15.0242 126.065 15.7442C126.805 16.4442 127.335 17.2842 127.655 18.2642L124.205 19.7642C123.905 18.9442 123.395 18.2842 122.675 17.7842C121.975 17.2842 121.165 17.0342 120.245 17.0342C119.385 17.0342 118.615 17.2442 117.935 17.6642C117.275 18.0842 116.755 18.6642 116.375 19.4042C115.995 20.1442 115.805 20.9942 115.805 21.9542C115.805 22.9142 115.995 23.7642 116.375 24.5042C116.755 25.2442 117.275 25.8242 117.935 26.2442C118.615 26.6642 119.385 26.8742 120.245 26.8742C121.185 26.8742 122.005 26.6242 122.705 26.1242C123.405 25.6242 123.905 24.9542 124.205 24.1142L127.655 25.6742C127.335 26.5942 126.815 27.4242 126.095 28.1642C125.375 28.8842 124.515 29.4542 123.515 29.8742C122.515 30.2742 121.425 30.4742 120.245 30.4742ZM137.117 30.4742C135.517 30.4742 134.057 30.1042 132.737 29.3642C131.437 28.6242 130.397 27.6142 129.617 26.3342C128.857 25.0542 128.477 23.5942 128.477 21.9542C128.477 20.3142 128.857 18.8542 129.617 17.5742C130.397 16.2942 131.437 15.2842 132.737 14.5442C134.037 13.8042 135.497 13.4342 137.117 13.4342C138.717 13.4342 140.167 13.8042 141.467 14.5442C142.767 15.2842 143.797 16.2942 144.557 17.5742C145.337 18.8342 145.727 20.2942 145.727 21.9542C145.727 23.5942 145.337 25.0542 144.557 26.3342C143.777 27.6142 142.737 28.6242 141.437 29.3642C140.137 30.1042 138.697 30.4742 137.117 30.4742ZM137.117 26.8742C137.997 26.8742 138.767 26.6642 139.427 26.2442C140.107 25.8242 140.637 25.2442 141.017 24.5042C141.417 23.7442 141.617 22.8942 141.617 21.9542C141.617 20.9942 141.417 20.1542 141.017 19.4342C140.637 18.6942 140.107 18.1142 139.427 17.6942C138.767 17.2542 137.997 17.0342 137.117 17.0342C136.217 17.0342 135.427 17.2542 134.747 17.6942C134.067 18.1142 133.527 18.6942 133.127 19.4342C132.747 20.1542 132.557 20.9942 132.557 21.9542C132.557 22.8942 132.747 23.7442 133.127 24.5042C133.527 25.2442 134.067 25.8242 134.747 26.2442C135.427 26.6642 136.217 26.8742 137.117 26.8742Z" fill="#0C1524"/>
<path d="M38 38.1142H0V28.4634H4.64799V33.4662H33.3875V29.244H38V38.1142Z" fill="#0C1524"/>
<path d="M38 10.1553H33.3875V4.72674H4.64799V9.76502H0V0.114227H38V10.1553Z" fill="#0C1524"/>
<path d="M14.2632 30.2375H9.40234L14.2632 18.3514H19.1596L14.2632 30.2375Z" fill="#FF8159"/>
<path d="M21.1815 30.2375H16.2852L24.4103 10.652H29.3066L21.1815 30.2375Z" fill="#FF8159"/>
</svg>
