<svg width="183" height="51" viewBox="0 0 183 51" fill="none" xmlns="http://www.w3.org/2000/svg">
<path d="M67.128 39.3604L60.396 19.7764H65.364L70.296 34.6444L68.568 34.6084L73.824 19.7764H78L83.22 34.6084L81.492 34.6444L86.424 19.7764H91.392L84.66 39.3604H80.448L75.12 23.8444H76.704L71.304 39.3604H67.128ZM101.834 39.7924C99.8177 39.7924 98.0537 39.3364 96.5417 38.4244C95.0297 37.5124 93.8537 36.2764 93.0137 34.7164C92.1737 33.1564 91.7537 31.4284 91.7537 29.5324C91.7537 27.5644 92.1737 25.8244 93.0137 24.3124C93.8777 22.7764 95.0417 21.5644 96.5057 20.6763C97.9937 19.7883 99.6497 19.3443 101.474 19.3443C103.01 19.3443 104.354 19.5963 105.506 20.1004C106.682 20.6044 107.678 21.3004 108.494 22.1884C109.31 23.0764 109.934 24.0964 110.366 25.2484C110.798 26.3764 111.014 27.6004 111.014 28.9204C111.014 29.2564 110.99 29.6044 110.942 29.9644C110.918 30.3244 110.858 30.6364 110.762 30.9004H95.6417V27.3004H108.098L105.866 28.9924C106.082 27.8884 106.022 26.9044 105.686 26.0404C105.374 25.1764 104.846 24.4924 104.102 23.9884C103.382 23.4844 102.506 23.2324 101.474 23.2324C100.49 23.2324 99.6137 23.4844 98.8457 23.9884C98.0777 24.4684 97.4897 25.1884 97.0817 26.1484C96.6977 27.0844 96.5537 28.2244 96.6497 29.5684C96.5537 30.7684 96.7097 31.8364 97.1177 32.7724C97.5497 33.6844 98.1737 34.3924 98.9897 34.8964C99.8297 35.4004 100.79 35.6524 101.87 35.6524C102.95 35.6524 103.862 35.4244 104.606 34.9684C105.374 34.5124 105.974 33.9004 106.406 33.1324L110.222 35.0044C109.838 35.9404 109.238 36.7684 108.422 37.4884C107.606 38.2084 106.634 38.7724 105.506 39.1804C104.402 39.5884 103.178 39.7924 101.834 39.7924ZM111.393 39.3604L118.233 29.5324L111.357 19.7764H116.901L122.265 27.6964H119.781L125.145 19.7764H130.653L123.813 29.5324L130.617 39.3604H125.109L119.817 31.4764H122.229L116.937 39.3604H111.393ZM132.151 39.3604V19.7764H136.867V39.3604H132.151ZM132.151 17.5804V12.5403H136.867V17.5804H132.151ZM149.574 39.7924C147.63 39.7924 145.878 39.3484 144.318 38.4604C142.782 37.5484 141.57 36.3244 140.682 34.7884C139.794 33.2284 139.35 31.4764 139.35 29.5324C139.35 27.5884 139.794 25.8484 140.682 24.3124C141.57 22.7764 142.782 21.5644 144.318 20.6763C145.878 19.7883 147.63 19.3443 149.574 19.3443C150.966 19.3443 152.262 19.5963 153.462 20.1004C154.662 20.5804 155.694 21.2524 156.558 22.1164C157.446 22.9564 158.082 23.9644 158.466 25.1404L154.326 26.9404C153.966 25.9564 153.354 25.1644 152.49 24.5644C151.65 23.9644 150.678 23.6644 149.574 23.6644C148.542 23.6644 147.618 23.9164 146.802 24.4204C146.01 24.9244 145.386 25.6204 144.93 26.5084C144.474 27.3964 144.246 28.4164 144.246 29.5684C144.246 30.7204 144.474 31.7404 144.93 32.6284C145.386 33.5164 146.01 34.2124 146.802 34.7164C147.618 35.2204 148.542 35.4724 149.574 35.4724C150.702 35.4724 151.686 35.1724 152.526 34.5724C153.366 33.9724 153.966 33.1684 154.326 32.1604L158.466 34.0324C158.082 35.1364 157.458 36.1324 156.594 37.0204C155.73 37.8844 154.698 38.5684 153.498 39.0724C152.298 39.5524 150.99 39.7924 149.574 39.7924ZM170.54 39.7924C168.62 39.7924 166.868 39.3484 165.284 38.4604C163.724 37.5724 162.476 36.3604 161.54 34.8244C160.628 33.2884 160.172 31.5364 160.172 29.5684C160.172 27.6004 160.628 25.8484 161.54 24.3124C162.476 22.7764 163.724 21.5644 165.284 20.6763C166.844 19.7883 168.596 19.3443 170.54 19.3443C172.46 19.3443 174.2 19.7883 175.76 20.6763C177.32 21.5644 178.556 22.7764 179.468 24.3124C180.404 25.8244 180.872 27.5764 180.872 29.5684C180.872 31.5364 180.404 33.2884 179.468 34.8244C178.532 36.3604 177.284 37.5724 175.724 38.4604C174.164 39.3484 172.436 39.7924 170.54 39.7924ZM170.54 35.4724C171.596 35.4724 172.52 35.2204 173.312 34.7164C174.128 34.2124 174.764 33.5164 175.22 32.6284C175.7 31.7164 175.94 30.6964 175.94 29.5684C175.94 28.4164 175.7 27.4084 175.22 26.5444C174.764 25.6564 174.128 24.9604 173.312 24.4564C172.52 23.9284 171.596 23.6644 170.54 23.6644C169.46 23.6644 168.512 23.9284 167.696 24.4564C166.88 24.9604 166.232 25.6564 165.752 26.5444C165.296 27.4084 165.068 28.4164 165.068 29.5684C165.068 30.6964 165.296 31.7164 165.752 32.6284C166.232 33.5164 166.88 34.2124 167.696 34.7164C168.512 35.2204 169.46 35.4724 170.54 35.4724Z" fill="white"/>
<path d="M50 50.8605H0V38.1621H6.11578V44.7447H43.9309V39.1892H50V50.8605Z" fill="white"/>
<path d="M50 14.0723H43.9309V6.92945H6.11578V13.5588H0V0.860352H50V14.0723Z" fill="white"/>
<path d="M18.768 40.497H12.3721L18.768 24.8574H25.2105L18.768 40.497Z" fill="white"/>
<path d="M27.8703 40.4969H21.4277L32.1187 14.7266H38.5613L27.8703 40.4969Z" fill="white"/>
</svg>
